<?xml version="1.0" encoding="UTF-8"?>
<svg id="Layer_1" data-name="Layer 1" xmlns="http://www.w3.org/2000/svg" viewBox="0 0 1918.74 614.89">
  <defs>
    <style>
      .cls-1 {
        fill: #252d60;
      }

      .cls-1, .cls-2 {
        stroke-width: 0px;
      }

      .cls-2 {
        fill: #f40000;
      }
    </style>
  </defs>
  <path class="cls-2" d="M459.39,303.7v-149.98h-149.79v110.11h-7.48v-35.11c0-41.42-33.53-74.99-74.9-74.99h0c-41.36,0-74.9,33.57-74.9,74.99s33.53,74.99,74.9,74.99h35.07v7.49h-35.07c-41.36,0-74.9,33.57-74.9,74.99h0c0,41.42,33.53,74.99,74.9,74.99h0c41.36,0,74.9-33.57,74.9-74.99v-35.11h7.48v35.11c0,41.42,33.53,74.99,74.9,74.99h0c41.36,0,74.9-33.57,74.9-74.99h0c0-41.42-33.53-74.99-74.9-74.99h-35.07v-7.49h109.97ZM349.42,193.6h70.14v70.23h-70.14v-70.23ZM227.22,263.83c-9.37,0-18.17-3.65-24.8-10.28-6.62-6.63-10.27-15.45-10.27-24.83s3.65-18.2,10.27-24.83c6.62-6.63,15.43-10.28,24.8-10.28s18.17,3.65,24.8,10.28c6.62,6.63,10.27,15.45,10.27,24.83v35.11h-35.07ZM262.29,386.18c0,9.38-3.65,18.2-10.27,24.83-6.62,6.63-15.43,10.28-24.8,10.28s-18.17-3.65-24.8-10.28c-6.62-6.63-10.27-15.45-10.27-24.83s3.65-18.2,10.27-24.83c6.62-6.63,15.43-10.28,24.8-10.28h35.07v35.11ZM409.29,361.35c6.62,6.63,10.27,15.45,10.27,24.83s-3.65,18.2-10.27,24.83c-6.62,6.63-15.43,10.28-24.8,10.28s-18.17-3.65-24.8-10.28c-6.62-6.63-10.27-15.45-10.27-24.83v-35.11h35.07c9.37,0,18.17,3.65,24.8,10.28Z"/>
  <g>
    <g>
      <path class="cls-1" d="M1740.77,377.56l25.44-30.71h-23.18l-18.54,24.93v-37.56c-.04-2.01-.77-3.72-2.21-5.13-1.4-1.4-3.09-2.12-5.07-2.16h-11.43v81.12h18.7v-25.69l18.65,25.69h23.29l-25.66-30.49Z"/>
      <path class="cls-1" d="M1669.35,346.21c-4.02,0-7.6.77-10.73,2.32-3.27,1.58-5.86,3.74-7.76,6.48v-8.15h-18.7v61.2h18.7v-33.3c0-4.03,1.08-7.2,3.23-9.5,2.12-2.23,4.92-3.35,8.41-3.35s6.52,1.12,8.68,3.35c2.08,2.3,3.13,5.47,3.13,9.5v33.3h18.65v-35.73c0-8.13-2.16-14.54-6.47-19.21-4.28-4.61-9.99-6.91-17.14-6.91Z"/>
      <path class="cls-1" d="M1599.87,355.49c-1.72-2.84-4.17-5.13-7.33-6.85-3.31-1.76-7.12-2.64-11.43-2.64-4.96,0-9.5,1.28-13.64,3.83-4.13,2.52-7.33,6.17-9.59,10.96-2.44,4.75-3.67,10.27-3.67,16.57s1.22,11.82,3.67,16.57c2.26,4.79,5.46,8.49,9.59,11.12,4.13,2.52,8.64,3.78,13.53,3.78,4.28,0,8.03-.88,11.27-2.64,3.27-1.69,5.8-3.96,7.6-6.8v8.69h18.76v-61.2h-18.76v8.64ZM1596.15,388.47c-2.66,2.73-5.84,4.1-9.54,4.1s-6.88-1.39-9.43-4.16c-2.55-2.7-3.83-6.39-3.83-11.06s1.28-8.31,3.83-11.01c2.55-2.73,5.7-4.1,9.43-4.1s6.88,1.4,9.54,4.21c2.48,2.63,3.72,6.3,3.72,11.01s-1.24,8.35-3.72,11.01Z"/>
      <path class="cls-1" d="M1532.33,368.61c3.99-1.19,7.17-3.31,9.54-6.37,2.37-2.99,3.56-6.73,3.56-11.23,0-6.15-2.23-10.99-6.68-14.52-4.42-3.6-10.51-5.4-18.27-5.4h-34.6v76.96h35.84c7.98,0,14.23-1.87,18.76-5.61,4.49-3.85,6.74-8.96,6.74-15.33,0-4.46-1.37-8.44-4.1-11.93-2.7-3.42-6.29-5.61-10.78-6.58ZM1504.57,346.15h12.29c3.09,0,5.46.7,7.12,2.1,1.62,1.4,2.43,3.36,2.43,5.88,0,2.66-.81,4.68-2.43,6.04-1.65,1.33-4.02,2-7.12,2h-12.29v-16.03ZM1525.59,390.73c-1.69,1.4-4.11,2.1-7.28,2.1h-13.74v-16.95h13.58c3.16,0,5.61.74,7.33,2.21,1.9,1.62,2.86,3.78,2.86,6.48s-.92,4.71-2.75,6.15Z"/>
    </g>
    <g>
      <path class="cls-1" d="M705.51,408.7c3.92,0,7.53-.83,10.83-2.48,3.2-1.66,5.75-3.85,7.65-6.58v8.37h18.7v-61.15h-18.7v33.24c0,3.99-1.04,7.16-3.13,9.5-2.16,2.23-5.05,3.35-8.68,3.35s-6.5-1.12-8.62-3.35c-2.01-2.23-3.02-5.4-3.02-9.5v-33.24h-18.7v35.73c0,5.29.99,9.93,2.96,13.92,1.9,3.96,4.69,6.96,8.35,9.01,3.56,2.12,7.67,3.18,12.34,3.18Z"/>
      <path class="cls-1" d="M627.46,374.76c0-4.07,1.06-7.21,3.18-9.44,2.12-2.34,4.94-3.51,8.46-3.51s6.49,1.17,8.57,3.51c2.12,2.23,3.18,5.38,3.18,9.44v33.24h18.6v-35.73c0-8.13-2.1-14.52-6.31-19.16-4.2-4.61-9.83-6.91-16.87-6.91-4.1,0-7.76.79-11,2.37-3.31,1.66-5.91,3.85-7.82,6.58v-20.89c-.04-2.01-.77-3.74-2.21-5.18-1.4-1.4-3.09-2.12-5.07-2.16h-11.48v81.06h18.76v-33.24Z"/>
      <path class="cls-1" d="M591.29,402.39c4.46-3.81,6.68-8.9,6.68-15.27,0-4.46-1.37-8.46-4.1-11.98-2.66-3.42-6.23-5.61-10.73-6.58,3.95-1.19,7.12-3.29,9.49-6.31,2.37-2.91,3.56-6.64,3.56-11.17,0-6.15-2.21-11.03-6.63-14.63-4.42-3.56-10.51-5.34-18.27-5.34h-34.66v76.91h35.79c8.01,0,14.3-1.87,18.87-5.61ZM555.39,346.1h12.34c3.05,0,5.37.68,6.95,2.05,1.65,1.4,2.48,3.42,2.48,6.04s-.83,4.61-2.48,5.94c-1.58,1.37-3.9,2.05-6.95,2.05h-12.34v-16.08ZM555.39,392.89v-17h13.53c3.2,0,5.66.77,7.38,2.32,1.8,1.51,2.7,3.63,2.7,6.37s-.88,4.73-2.64,6.21c-1.69,1.4-4.08,2.1-7.17,2.1h-13.8Z"/>
      <path class="cls-1" d="M913.57,365.31c2.12,2.23,3.18,5.38,3.18,9.44v33.24h18.7v-35.73c0-8.13-2.17-14.52-6.52-19.16-4.24-4.61-9.95-6.91-17.14-6.91-3.99,0-7.6.79-10.83,2.37-3.23,1.55-5.77,3.69-7.6,6.42v-8.15h-18.7v61.15h18.7v-33.24c0-4.07,1.04-7.21,3.13-9.44,2.08-2.34,4.94-3.51,8.57-3.51s6.43,1.17,8.52,3.51Z"/>
      <path class="cls-1" d="M790.08,408v-15.87h-6.58c-2.08,0-3.56-.41-4.42-1.24-.86-.79-1.29-2.1-1.29-3.94v-24.56h12.24v-15.54h-12.24v-7.66c-.04-1.98-.77-3.69-2.21-5.13-1.4-1.4-3.09-2.12-5.07-2.16h-11.53v14.95h-7.38v15.54h7.38v24.39c0,7.52,1.94,12.92,5.82,16.19,3.74,3.35,9.02,5.02,15.85,5.02h9.43Z"/>
      <path class="cls-1" d="M842.47,399.42v8.58h18.7v-61.15h-18.7v8.69c-1.76-2.88-4.28-5.2-7.55-6.96-3.2-1.73-6.97-2.59-11.32-2.59-4.99,0-9.54,1.28-13.64,3.83-4.13,2.55-7.35,6.21-9.65,10.96-2.41,4.71-3.61,10.22-3.61,16.51s1.2,11.89,3.61,16.68c2.3,4.79,5.52,8.47,9.65,11.06,4.1,2.52,8.61,3.78,13.53,3.78,4.38,0,8.16-.86,11.32-2.59,3.27-1.76,5.82-4.03,7.65-6.8ZM829.1,392.57c-3.74,0-6.88-1.39-9.43-4.16-2.62-2.73-3.93-6.44-3.93-11.12s1.31-8.31,3.93-11.01c2.55-2.7,5.7-4.05,9.43-4.05s6.95,1.4,9.54,4.21c2.55,2.7,3.83,6.39,3.83,11.06s-1.28,8.2-3.83,10.9c-2.59,2.77-5.77,4.16-9.54,4.16Z"/>
    </g>
    <g>
      <rect class="cls-1" x="1176.85" y="346.69" width="18.76" height="61.2"/>
      <path class="cls-1" d="M1194.26,323c-2.08-1.94-4.76-2.91-8.03-2.91s-5.88.97-7.92,2.91c-.4.36-.74.72-1.02,1.08-1.44,1.69-2.16,3.72-2.16,6.1,0,2.88,1.06,5.27,3.18,7.18,2.05,2.02,4.69,3.02,7.92,3.02s5.95-1.01,8.03-3.02c2.01-1.91,3.02-4.3,3.02-7.18,0-2.37-.66-4.41-1.99-6.1-.32-.36-.66-.72-1.02-1.08Z"/>
      <path class="cls-1" d="M1155.5,390.78c-.86-.83-1.29-2.12-1.29-3.89v-24.66h12.34v-15.54h-12.34v-7.61c-.04-2.01-.77-3.74-2.21-5.18-1.4-1.4-3.09-2.12-5.07-2.16h-11.37v14.95h-7.49v15.54h7.49v24.39c0,7.48,1.89,12.9,5.66,16.24,3.74,3.35,9.04,5.02,15.9,5.02h9.49v-15.92h-6.63c-2.01,0-3.5-.4-4.47-1.19Z"/>
      <path class="cls-1" d="M1100.41,355.32c-1.72-2.84-4.22-5.13-7.49-6.85-3.23-1.76-7.03-2.64-11.37-2.64-5.03,0-9.59,1.28-13.69,3.83-4.1,2.52-7.31,6.17-9.65,10.96-2.37,4.75-3.56,10.27-3.56,16.57s1.19,11.82,3.56,16.57c2.34,4.79,5.55,8.49,9.65,11.12,4.1,2.52,8.64,3.78,13.64,3.78,4.31,0,8.09-.88,11.32-2.64,3.27-1.69,5.8-3.96,7.6-6.8v8.69h18.76v-61.2h-18.76v8.64ZM1096.48,388.3c-2.55,2.73-5.7,4.1-9.43,4.1s-6.88-1.39-9.54-4.16c-2.48-2.7-3.72-6.39-3.72-11.06s1.24-8.31,3.72-11.01c2.66-2.73,5.84-4.1,9.54-4.1s6.88,1.4,9.43,4.21c2.62,2.63,3.93,6.3,3.93,11.01s-1.31,8.35-3.93,11.01Z"/>
      <path class="cls-1" d="M1037.57,330.93h-11.37v47.6l-31.32-47.6h-18.76v76.96h18.76v-47.55l31.32,47.55h18.65v-69.62c-.04-2.01-.77-3.74-2.21-5.18-1.4-1.4-3.09-2.12-5.07-2.16Z"/>
      <path class="cls-1" d="M1438,326.77h-11.43v81.12h18.65v-73.83c-.04-2.01-.75-3.72-2.16-5.13-1.4-1.4-3.09-2.12-5.07-2.16Z"/>
      <path class="cls-1" d="M1394.5,355.32c-1.8-2.84-4.33-5.13-7.6-6.85-3.23-1.76-6.99-2.64-11.27-2.64-5.03,0-9.61,1.28-13.74,3.83-4.06,2.52-7.26,6.17-9.59,10.96-2.41,4.75-3.61,10.27-3.61,16.57s1.2,11.82,3.61,16.57c2.34,4.79,5.53,8.49,9.59,11.12,4.13,2.52,8.7,3.78,13.69,3.78,4.24,0,8-.88,11.27-2.64,3.27-1.69,5.82-3.96,7.65-6.8v8.69h18.7v-61.2h-18.7v8.64ZM1390.62,388.3c-2.62,2.73-5.82,4.1-9.59,4.1s-6.77-1.39-9.43-4.16c-2.55-2.7-3.83-6.39-3.83-11.06s1.28-8.31,3.83-11.01c2.66-2.73,5.8-4.1,9.43-4.1s6.97,1.4,9.59,4.21c2.59,2.63,3.88,6.3,3.88,11.01s-1.29,8.35-3.88,11.01Z"/>
      <path class="cls-1" d="M1315.97,346.04c-4.02,0-7.64.77-10.83,2.32-3.27,1.58-5.84,3.74-7.71,6.48v-8.15h-18.65v61.2h18.65v-33.3c0-4.03,1.08-7.2,3.23-9.5,2.05-2.23,4.89-3.35,8.52-3.35s6.41,1.12,8.46,3.35c2.08,2.3,3.13,5.47,3.13,9.5v33.3h18.7v-35.73c0-8.13-2.12-14.54-6.36-19.21-4.28-4.61-9.99-6.91-17.14-6.91Z"/>
      <path class="cls-1" d="M1237.76,356.07l10.4,10.41c5.73,5.74,5.73,15.08,0,20.82-2.78,2.78-6.47,4.31-10.4,4.31s-7.62-1.53-10.4-4.31c-5.73-5.74-5.73-15.08,0-20.82l10.4-10.41M1237.76,331.74l-22.55,22.57c-12.45,12.47-12.45,32.68,0,45.15h0c6.23,6.23,14.39,9.35,22.55,9.35s16.32-3.12,22.55-9.35h0c12.45-12.47,12.45-32.68,0-45.15l-22.55-22.57h0Z"/>
    </g>
    <g>
      <path class="cls-1" d="M659.48,239.33c.72.77,1.96,1.83,3.72,3.19,1.76,1.35,3.9,2.68,6.41,3.97,2.51,1.3,5.28,2.43,8.31,3.39,3.03.97,6.14,1.45,9.34,1.45,3.58,0,6.78-.65,9.59-1.94,2.81-1.3,5.23-2.72,7.28-4.26,2.04-1.54,3.65-2.96,4.84-4.26,1.18-1.3,1.97-1.94,2.36-1.94.11,0,.3.07.58.21.28.14.41.26.41.37,0,.33-.33,1.02-.99,2.07-.66,1.05-1.61,2.29-2.85,3.72-1.24,1.44-2.73,2.94-4.46,4.51-1.74,1.57-3.67,3.04-5.79,4.39-2.12,1.35-4.44,2.46-6.94,3.31-2.51.86-5.11,1.28-7.81,1.28-2.48,0-4.75-.26-6.82-.79-2.07-.52-4.09-1.39-6.08-2.61-1.98-1.21-4.05-2.81-6.2-4.8-2.15-1.99-4.55-4.47-7.19-7.45l2.31-3.81ZM658.74,222.53c.5.44,1.32,1.11,2.48,1.99,1.16.88,2.56,1.88,4.22,2.98s3.53,2.23,5.62,3.39c2.09,1.16,4.31,2.22,6.65,3.19,2.34.97,4.78,1.77,7.32,2.4,2.53.63,5.1.95,7.69.95,1.82,0,3.47-.19,4.96-.58,1.49-.39,2.78-1.01,3.89-1.86,1.1-.86,1.96-1.99,2.56-3.39.61-1.41.91-3.1.91-5.09,0-1.33-.18-2.73-.54-4.22-.36-1.49-1.07-2.88-2.15-4.18s-2.6-2.37-4.59-3.23c-1.98-.86-4.6-1.28-7.85-1.28-2.43,0-3.64,1.02-3.64,3.06,0,1.21.54,2.18,1.61,2.9,1.07.72,2.26,1.38,3.55,1.99,1.29.61,2.48,1.28,3.56,2.03,1.07.75,1.61,1.73,1.61,2.94,0,.66-.1,1.34-.29,2.03-.19.69-.43,1.34-.7,1.95-.28.61-.59,1.1-.95,1.49-.36.39-.7.58-1.03.58-.39,0-1.21-.28-2.48-.83-1.27-.55-2.59-1.37-3.97-2.44-1.38-1.08-2.62-2.41-3.72-4.01-1.1-1.6-1.65-3.48-1.65-5.63,0-.77.18-1.94.54-3.52.36-1.57,1.03-3.15,2.03-4.72.99-1.57,2.34-2.94,4.05-4.1,1.71-1.16,3.91-1.74,6.61-1.74,1.54,0,3.28.3,5.21.91,1.93.61,3.75,1.56,5.46,2.86,1.71,1.3,3.14,2.94,4.3,4.92,1.16,1.99,1.74,4.33,1.74,7.04,0,3.09-.62,6.08-1.86,8.98-1.24,2.9-2.96,5.46-5.17,7.7-2.2,2.23-4.78,4.03-7.73,5.38-2.95,1.35-6.13,2.03-9.55,2.03-2.76,0-5.39-.46-7.89-1.37-2.51-.91-4.85-2.05-7.03-3.43-2.18-1.38-4.15-2.87-5.91-4.47-1.77-1.6-3.27-3.09-4.51-4.47-1.24-1.38-2.2-2.52-2.89-3.43-.69-.91-1.03-1.39-1.03-1.45l.58-4.22Z"/>
      <path class="cls-1" d="M593.67,205.64c1.49,0,3.18.3,5.08.91,1.9.61,3.69,1.54,5.37,2.81,1.68,1.27,3.09,2.9,4.22,4.88,1.13,1.99,1.69,4.33,1.69,7.04,0,3.09-.59,6.08-1.78,8.98-1.19,2.9-2.84,5.46-4.96,7.7-2.12,2.23-4.63,4.03-7.52,5.38-2.89,1.35-6.08,2.03-9.55,2.03-2.76,0-5.46-.52-8.1-1.57-2.65-1.05-5.28-2.43-7.89-4.14-2.62-1.71-5.25-3.63-7.89-5.75-2.65-2.12-5.29-4.23-7.94-6.33-2.37-1.87-4.78-3.74-7.23-5.59-2.45-1.85-4.96-3.6-7.52-5.26-2.56-1.66-5.18-3.17-7.85-4.55-2.67-1.38-5.41-2.54-8.23-3.48-1.54-.55-2.31-1.19-2.31-1.9,0-.17.14-.4.41-.7.28-.3.72-.46,1.32-.46,3.36,0,6.83.79,10.42,2.36,3.58,1.57,7.22,3.53,10.91,5.88,3.69,2.35,7.47,4.9,11.33,7.66,3.86,2.76,7.76,5.31,11.7,7.66,3.94,2.35,7.92,4.3,11.95,5.88,4.02,1.57,8.1,2.36,12.23,2.36,3.69,0,6.63-.81,8.8-2.44,2.18-1.63,3.26-4.46,3.26-8.48,0-1.33-.18-2.73-.54-4.22-.36-1.49-1.07-2.88-2.15-4.18-1.07-1.3-2.59-2.37-4.55-3.23-1.96-.86-4.56-1.28-7.81-1.28-1.1,0-2.01.23-2.73.7-.72.47-1.07,1.28-1.07,2.44s.54,2,1.61,2.69c1.07.69,2.27,1.35,3.6,1.99,1.32.63,2.52,1.34,3.6,2.11,1.07.77,1.61,1.77,1.61,2.98,0,.66-.08,1.34-.25,2.03-.16.69-.4,1.33-.7,1.9-.3.58-.63,1.06-.99,1.45-.36.39-.7.58-1.03.58s-1.13-.26-2.4-.79c-1.27-.52-2.6-1.32-4.01-2.4-1.41-1.08-2.67-2.41-3.8-4.01-1.13-1.6-1.69-3.48-1.69-5.63,0-.77.21-1.94.62-3.52.41-1.57,1.13-3.13,2.15-4.68,1.02-1.54,2.38-2.9,4.09-4.06,1.71-1.16,3.89-1.74,6.53-1.74ZM559.11,238.91c.72.77,1.94,1.86,3.68,3.27,1.74,1.41,3.79,2.79,6.16,4.14,2.37,1.35,5,2.52,7.89,3.52,2.89.99,5.88,1.49,8.97,1.49,3.8,0,7.11-.65,9.92-1.94,2.81-1.3,5.19-2.72,7.15-4.26,1.96-1.54,3.5-2.96,4.63-4.26,1.13-1.3,1.89-1.94,2.27-1.94.72,0,1.07.19,1.07.58,0,.11-.3.68-.91,1.7-.61,1.02-1.49,2.23-2.65,3.64-1.16,1.41-2.56,2.93-4.22,4.55-1.65,1.63-3.53,3.13-5.62,4.51-2.1,1.38-4.4,2.52-6.9,3.43-2.51.91-5.17,1.37-7.98,1.37-2.98,0-5.51-.32-7.61-.95-2.09-.63-4.06-1.6-5.91-2.9-1.85-1.29-3.76-2.95-5.75-4.97-1.98-2.01-4.35-4.4-7.11-7.16l2.89-3.81Z"/>
      <path class="cls-1" d="M608.76,239.33c.72.77,1.96,1.83,3.72,3.19,1.76,1.35,3.9,2.68,6.41,3.97,2.51,1.3,5.28,2.43,8.31,3.39,3.03.97,6.14,1.45,9.34,1.45,3.58,0,6.78-.65,9.59-1.94,2.81-1.3,5.23-2.72,7.28-4.26,2.04-1.54,3.65-2.96,4.84-4.26,1.18-1.3,1.97-1.94,2.36-1.94.11,0,.3.07.58.21.28.14.41.26.41.37,0,.33-.33,1.02-.99,2.07-.66,1.05-1.61,2.29-2.85,3.72-1.24,1.44-2.73,2.94-4.46,4.51-1.74,1.57-3.67,3.04-5.79,4.39-2.12,1.35-4.44,2.46-6.94,3.31-2.51.86-5.11,1.28-7.81,1.28-2.48,0-4.75-.26-6.82-.79-2.07-.52-4.09-1.39-6.08-2.61-1.98-1.21-4.05-2.81-6.2-4.8-2.15-1.99-4.55-4.47-7.19-7.45l2.31-3.81ZM608.01,222.53c.5.44,1.32,1.11,2.48,1.99,1.16.88,2.56,1.88,4.22,2.98s3.53,2.23,5.62,3.39c2.09,1.16,4.31,2.22,6.65,3.19,2.34.97,4.78,1.77,7.32,2.4,2.53.63,5.1.95,7.69.95,1.82,0,3.47-.19,4.96-.58,1.49-.39,2.78-1.01,3.89-1.86,1.1-.86,1.96-1.99,2.56-3.39.61-1.41.91-3.1.91-5.09,0-1.33-.18-2.73-.54-4.22-.36-1.49-1.07-2.88-2.15-4.18s-2.6-2.37-4.59-3.23c-1.98-.86-4.6-1.28-7.85-1.28-2.43,0-3.64,1.02-3.64,3.06,0,1.21.54,2.18,1.61,2.9,1.07.72,2.26,1.38,3.55,1.99,1.29.61,2.48,1.28,3.56,2.03,1.07.75,1.61,1.73,1.61,2.94,0,.66-.1,1.34-.29,2.03-.19.69-.43,1.34-.7,1.95-.28.61-.59,1.1-.95,1.49-.36.39-.7.58-1.03.58-.39,0-1.21-.28-2.48-.83-1.27-.55-2.59-1.37-3.97-2.44-1.38-1.08-2.62-2.41-3.72-4.01-1.1-1.6-1.65-3.48-1.65-5.63,0-.77.18-1.94.54-3.52.36-1.57,1.03-3.15,2.03-4.72.99-1.57,2.34-2.94,4.05-4.1,1.71-1.16,3.91-1.74,6.61-1.74,1.54,0,3.28.3,5.21.91,1.93.61,3.75,1.56,5.46,2.86,1.71,1.3,3.14,2.94,4.3,4.92,1.16,1.99,1.74,4.33,1.74,7.04,0,3.09-.62,6.08-1.86,8.98-1.24,2.9-2.96,5.46-5.17,7.7-2.2,2.23-4.78,4.03-7.73,5.38-2.95,1.35-6.13,2.03-9.55,2.03-2.76,0-5.39-.46-7.89-1.37-2.51-.91-4.85-2.05-7.03-3.43-2.18-1.38-4.15-2.87-5.91-4.47-1.77-1.6-3.27-3.09-4.51-4.47-1.24-1.38-2.2-2.52-2.89-3.43-.69-.91-1.03-1.39-1.03-1.45l.58-4.22Z"/>
      <path class="cls-1" d="M725.91,206.63c.77,0,1.36.11,1.78.33.41.22.62.63.62,1.24,0,1.05-.15,2.08-.45,3.1-.3,1.02-.59,2.08-.87,3.19s-.59,2.19-.95,3.27c-.36,1.08-.54,2.17-.54,3.27v75.4c0,.28-.14.61-.41.99-.28.39-.8.58-1.57.58-.39,0-.73-.19-1.03-.58-.3-.39-.45-.72-.45-.99l-3.97-74.74c0-.33-.08-.79-.25-1.37s-.36-1.16-.58-1.74c-.22-.58-.5-1.13-.83-1.66s-.66-.95-.99-1.28v-3.39l2.31-5.63h8.18Z"/>
      <path class="cls-1" d="M797.17,206.63c.77,0,1.36.11,1.78.33.41.22.62.63.62,1.24,0,1.05-.15,2.08-.45,3.1-.3,1.02-.59,2.08-.87,3.19s-.59,2.19-.95,3.27c-.36,1.08-.54,2.17-.54,3.27v75.4c0,.28-.14.61-.41.99-.28.39-.8.58-1.57.58-.39,0-.73-.19-1.03-.58-.3-.39-.45-.72-.45-.99l-3.97-74.74c0-.33-.08-.79-.25-1.37s-.36-1.16-.58-1.74c-.22-.58-.5-1.13-.83-1.66s-.66-.95-.99-1.28v-3.39l2.31-5.63h8.18Z"/>
      <path class="cls-1" d="M844.81,206.63l-2.15,5.96c-.5,1.1-1.57,1.77-3.22,1.99.94,1.1,1.58,2.59,1.94,4.47.36,1.88.54,3.7.54,5.46,0,.77-.22,1.68-.66,2.73-.44,1.05-1.02,2.07-1.74,3.06-.72.99-1.5,1.89-2.36,2.69-.85.8-1.72,1.37-2.6,1.7.88.11,1.78.63,2.69,1.57.91.94,1.76,2.14,2.56,3.6.8,1.46,1.54,3.06,2.23,4.8.69,1.74,1.28,3.45,1.78,5.13.5,1.68.88,3.27,1.16,4.76.27,1.49.41,2.68.41,3.56,0,.83-.36,1.24-1.07,1.24-.66,0-1.43-.66-2.31-1.99-.72-1.1-1.52-2.59-2.4-4.47-.88-1.87-1.96-3.72-3.22-5.55-1.27-1.82-2.78-3.39-4.55-4.72-1.76-1.33-3.86-1.99-6.28-1.99-.61,0-1.28.14-2.03.41-.74.28-1.52.61-2.31.99-.8.39-1.6.82-2.4,1.28-.8.47-1.5.87-2.11,1.2.05-1.76.41-3.64,1.07-5.63.66-1.99,1.63-3.53,2.89-4.64.99-.94,2.12-1.48,3.39-1.61,1.27-.14,2.7-.21,4.3-.21.44,0,1.01.03,1.69.08.69.06,1.14.14,1.36.25.83-.66,1.6-1.63,2.31-2.9.72-1.27,1.07-3.06,1.07-5.38,0-1.21-.19-2.43-.58-3.64-.39-1.21-.95-2.28-1.69-3.19-.74-.91-1.63-1.66-2.65-2.23-1.02-.58-2.14-.87-3.35-.87h-9.26c-1.05,0-2.16.35-3.35,1.03-1.19.69-2.27,1.59-3.26,2.69-.99,1.11-1.82,2.35-2.48,3.73-.66,1.38-.99,2.76-.99,4.14,0,1.55.14,2.75.41,3.6.28.86.58,1.6.91,2.23.33.63.63,1.3.91,1.99.28.69.41,1.64.41,2.85,0,.83-.14,1.75-.41,2.77-.28,1.02-.61,1.96-.99,2.81-.39.86-.81,1.57-1.28,2.15-.47.58-.9.87-1.28.87-.55,0-.83-.08-.83-.25,0-.11.03-.22.08-.33.05-.11.08-.22.08-.33,0-1.32-.22-2.54-.66-3.64-.44-1.1-.94-2.19-1.49-3.27-.55-1.08-1.05-2.18-1.49-3.31-.44-1.13-.66-2.41-.66-3.85,0-2.32.1-4.26.29-5.84.19-1.57.48-2.98.87-4.22.38-1.24.88-2.4,1.49-3.48.61-1.08,1.32-2.25,2.15-3.52.33-.5.87-1.12,1.61-1.86.74-.74,1.6-1.49,2.56-2.23.96-.75,1.93-1.38,2.89-1.9.96-.52,1.8-.79,2.52-.79h29.51Z"/>
      <path class="cls-1" d="M894.21,206.63c-.22,1.11-.5,2.32-.83,3.64-.33,1.33-.65,2.64-.95,3.93-.3,1.3-.57,2.51-.79,3.64-.22,1.13-.33,2.06-.33,2.77v50.74c-.72-.5-1.69-1.13-2.94-1.9-1.24-.77-2.41-1.6-3.51-2.48-2.2-1.77-4.16-3.25-5.87-4.47-1.71-1.21-3.5-2.21-5.37-2.98-1.87-.77-4.01-1.34-6.41-1.7-2.4-.36-5.36-.54-8.89-.54-.61,0-1.35.03-2.23.08-.88.06-1.79.14-2.73.25-.94.11-1.85.24-2.73.37-.88.14-1.6.29-2.15.46,0-1.44.29-2.76.87-3.97.58-1.21,1.36-2.26,2.36-3.15.99-.88,2.15-1.57,3.47-2.07,1.32-.5,2.73-.75,4.22-.75,2.81,0,5.59.41,8.35,1.24,2.76.83,5.37,1.9,7.85,3.23,2.48,1.33,4.75,2.84,6.82,4.55,2.07,1.71,3.84,3.45,5.33,5.21l-.99-13.74c-1.93-1.93-4-3.7-6.2-5.3-2.21-1.6-4.52-2.98-6.94-4.14-2.43-1.16-4.93-2.07-7.52-2.73-2.59-.66-5.18-.99-7.77-.99-.61,0-1.35.04-2.23.12-.88.08-1.81.21-2.77.37-.97.17-1.89.33-2.77.5-.88.17-1.6.33-2.15.5,0-1.43.3-3.01.91-4.72.61-1.71,1.63-2.95,3.06-3.72,0-1.49.15-3.01.46-4.55.3-1.54.66-2.99,1.07-4.35.41-1.35.84-2.52,1.28-3.52.44-.99.8-1.63,1.07-1.9h-3.47c-.99,0-1.63-.08-1.9-.25-.28-.17-.41-.58-.41-1.24,0-.39.1-.8.29-1.24.19-.44.43-.88.7-1.32l1.98-3.89h40.75ZM901.49,286.01c0,2.15-.46,4.15-1.36,6-.91,1.85-2.08,3.46-3.51,4.84-1.43,1.38-3.05,2.46-4.84,3.23-1.79.77-3.6,1.16-5.41,1.16-2.15,0-4.15-.57-5.99-1.7-1.85-1.13-3.62-2.61-5.33-4.43-1.71-1.82-3.43-3.88-5.17-6.17-1.74-2.29-3.58-4.62-5.54-6.99-1.96-2.37-4.08-4.66-6.37-6.87-2.29-2.21-4.84-4.14-7.65-5.79-1.1-.66-1.65-1.35-1.65-2.07,0-.27.12-.5.37-.66.25-.17.48-.25.7-.25.88,0,1.82.19,2.81.58,2.37,1.05,4.74,2.44,7.11,4.18,2.37,1.74,4.72,3.6,7.07,5.59,2.34,1.99,4.63,4,6.86,6.04,2.23,2.04,4.39,3.88,6.49,5.5,2.09,1.63,4.1,2.96,6.03,4.01,1.93,1.05,3.77,1.57,5.54,1.57,1.6,0,2.98-.39,4.13-1.16,1.16-.77,1.74-2.21,1.74-4.3,0-.94-.29-1.82-.87-2.65-.58-.83-1.32-1.55-2.23-2.15-.91-.61-1.93-1.09-3.06-1.45-1.13-.36-2.25-.54-3.35-.54-1.16,0-2.23.22-3.22.66-.17.06-.41.19-.74.41s-.68.44-1.03.66c-.36.22-.72.43-1.07.62-.36.19-.62.29-.79.29-.28,0-.43-.32-.45-.95-.03-.63-.04-1.2-.04-1.7,0-.66.18-1.48.54-2.44.36-.97.92-1.89,1.69-2.77.77-.88,1.75-1.64,2.93-2.28,1.18-.63,2.58-.95,4.17-.95,1.71,0,3.27.35,4.67,1.04,1.41.69,2.62,1.63,3.64,2.81,1.02,1.19,1.8,2.57,2.36,4.14.55,1.57.83,3.21.83,4.92ZM864.87,214.58c-.88,0-1.82.5-2.81,1.49-.99.99-1.92,2.19-2.77,3.6-.85,1.41-1.56,2.9-2.11,4.47-.55,1.57-.83,2.91-.83,4.01.22-.05.58-.1,1.07-.12.5-.03,1-.05,1.53-.08.52-.03,1.02-.04,1.49-.04h1.12c2.09,0,4.33.28,6.7.83,2.37.55,4.68,1.42,6.94,2.61,2.26,1.19,4.37,2.69,6.32,4.51,1.96,1.82,3.6,4,4.92,6.54l-1.57-17.22c-.11-1.38-.25-2.7-.41-3.97-.16-1.27-.34-2.4-.54-3.39-.19-.99-.44-1.78-.74-2.36-.3-.58-.65-.87-1.03-.87h-17.28Z"/>
      <path class="cls-1" d="M949.07,206.63c-.28,1.11-.58,2.32-.91,3.64-.33,1.33-.65,2.64-.95,3.93-.3,1.3-.57,2.51-.79,3.64-.22,1.13-.33,2.06-.33,2.77v75.98c0,.5-.18.85-.54,1.08-.36.22-.79.33-1.28.33-.28,0-.58-.11-.91-.33s-.52-.58-.58-1.08l-4.05-75.07c-.06-.88-.15-1.74-.29-2.56-.14-.83-.32-1.57-.54-2.24-.22-.66-.47-1.19-.74-1.57-.28-.39-.58-.58-.91-.58h-8.1c-.06.61-.1,1.32-.12,2.15-.03.83-.04,1.63-.04,2.4v30.87c0,.61-.08,1.03-.25,1.28-.17.25-.33.37-.5.37-.22,0-.51-.18-.87-.54-.36-.36-.73-.76-1.12-1.2-3.42-3.86-6.39-6.79-8.93-8.77-2.54-1.99-5.13-2.98-7.77-2.98-1.43,0-2.96.08-4.59.25-1.63.17-3.43.47-5.41.91,0-.22.07-.72.21-1.49.14-.77.38-1.63.74-2.57.36-.94.84-1.83,1.45-2.69.61-.86,1.38-1.5,2.31-1.95,0-.39-.01-.66-.04-.83-.03-.16-.06-.32-.08-.45-.03-.14-.04-.3-.04-.5v-.95c0-1.05.04-2.21.12-3.48s.25-2.52.5-3.77c.25-1.24.61-2.4,1.07-3.48.47-1.08,1.06-1.94,1.78-2.61h-3.72c-.99,0-1.63-.08-1.9-.25-.28-.17-.41-.58-.41-1.24,0-.39.1-.8.29-1.24.19-.44.43-.88.7-1.32l1.98-3.89h45.55ZM914.6,214.58c-.61.11-1.32.59-2.15,1.45-.83.86-1.64,1.97-2.44,3.35-.8,1.38-1.47,2.99-2.03,4.84-.55,1.85-.83,3.79-.83,5.84,1.76,0,3.36.23,4.79.7,1.43.47,2.8,1.2,4.09,2.19,1.29.99,2.58,2.26,3.84,3.81,1.27,1.54,2.65,3.39,4.13,5.54-.33-3.36-.68-6.52-1.03-9.48-.36-2.95-.68-6.11-.95-9.48-.17-1.82-.41-3.3-.74-4.43-.33-1.13-.69-2-1.07-2.61-.39-.61-.74-1.02-1.07-1.24-.33-.22-.58-.39-.74-.5h-3.8Z"/>
      <path class="cls-1" d="M959.54,218.8c-.44,0-.77-.14-.99-.41-.22-.28-.5-.77-.83-1.49-.33-.66-.7-1.37-1.12-2.11-.41-.74-.8-1.46-1.16-2.15-.36-.69-.68-1.34-.95-1.95-.28-.61-.41-1.08-.41-1.41,0-.61.23-1.2.7-1.78.47-.58,1.2-.87,2.19-.87h5.13c.99,0,1.72.29,2.19.87.47.58.7,1.17.7,1.78,0,.33-.14.8-.41,1.41-.28.61-.59,1.26-.95,1.95-.36.69-.74,1.41-1.16,2.15-.41.75-.78,1.45-1.12,2.11-.33.72-.61,1.21-.83,1.49-.22.28-.55.41-.99.41Z"/>
      <path class="cls-1" d="M1011.5,206.63l-2.73,5.96c-.5.61-1.13,1.09-1.9,1.45-.77.36-1.9.54-3.39.54h-10.66v7.78h23.4c-.28,1.11-.57,2.32-.87,3.64-.3,1.33-.59,2.64-.87,3.93-.28,1.3-.51,2.51-.7,3.64-.19,1.13-.29,2.06-.29,2.77v23.42c0,1.77-.66,3.44-1.98,5.01-1.32,1.57-2.9,2.94-4.75,4.1-1.85,1.16-3.76,2.08-5.75,2.77-1.98.69-3.64,1.03-4.96,1.03-2.92,0-5.94-.35-9.05-1.03-3.11-.69-6.21-1.67-9.3-2.94,2.09,3.37,4.63,5.84,7.61,7.41,2.97,1.57,6.12,2.36,9.42,2.36,3.53,0,7-.83,10.42-2.48,3.42-1.66,7.19-4.19,11.33-7.62.5-.44,1.04-.85,1.65-1.24.61-.39,1.16-.58,1.65-.58.27,0,.48.1.62.29.14.19.21.4.21.62,0,.28-.12.58-.37.91-.25.33-.53.66-.83.99-.3.33-.62.65-.95.95s-.58.56-.75.79c-1.82,2.1-3.62,4.07-5.41,5.92-1.79,1.85-3.65,3.46-5.58,4.84-1.93,1.38-4.03,2.47-6.28,3.27-2.26.8-4.79,1.2-7.61,1.2-3.25,0-5.98-.69-8.18-2.07-2.2-1.38-4.11-3.12-5.7-5.21-1.6-2.1-3-4.42-4.22-6.95-1.21-2.54-2.48-4.97-3.8-7.28-.11-.22-.25-.52-.41-.91-.16-.39-.25-.72-.25-.99,0-.11.1-.26.29-.46s.48-.29.87-.29c.44,0,1.32.22,2.65.66,1.1.39,2.45.87,4.05,1.45,1.6.58,3.33,1.15,5.21,1.7,1.87.55,3.8,1.02,5.79,1.41,1.98.39,3.94.58,5.87.58,1.71,0,3.43-.32,5.17-.95,1.74-.63,3.29-1.44,4.67-2.4,1.38-.96,2.51-1.99,3.39-3.06.88-1.08,1.33-2.05,1.33-2.94l-2.15-21.35c-.11-.88-.23-1.74-.37-2.56-.14-.83-.3-1.57-.5-2.23-.19-.66-.43-1.19-.7-1.57-.28-.39-.58-.58-.91-.58h-9.34c-.05.61-.1,1.32-.12,2.15-.03.83-.04,1.63-.04,2.4v25.08c0,.61-.08,1.04-.25,1.28-.17.25-.33.37-.5.37-.22,0-.51-.18-.87-.54-.36-.36-.73-.76-1.11-1.2-1.71-1.93-3.3-3.5-4.75-4.72-1.46-1.21-2.85-2.15-4.17-2.81-1.32-.66-2.62-1.12-3.89-1.37-1.27-.25-2.56-.37-3.88-.37-1.43,0-2.96.08-4.59.25-1.63.17-3.43.47-5.41.91,0-.22.07-.72.21-1.49.14-.77.38-1.63.74-2.57.36-.94.84-1.83,1.45-2.69.61-.85,1.38-1.5,2.31-1.94,0-.39-.01-.66-.04-.83-.03-.17-.06-.32-.08-.46-.03-.14-.04-.3-.04-.5v-.95c0-.39.04-1.01.12-1.86.08-.86.25-1.78.5-2.77.25-.99.61-1.97,1.07-2.94.47-.96,1.06-1.78,1.78-2.44h-3.72c-.99,0-1.63-.08-1.9-.25-.28-.17-.41-.58-.41-1.24,0-.39.1-.8.29-1.24.19-.44.43-.88.7-1.32l1.98-3.89h17.28v-1.66c0-1.93-.54-3.41-1.61-4.43-1.08-1.02-2.25-1.59-3.51-1.7h-10.17c-.99,0-1.63-.08-1.9-.25-.28-.17-.41-.58-.41-1.24,0-.22.12-.63.37-1.24.25-.61.54-1.24.87-1.9s.66-1.31.99-1.94c.33-.63.58-1.09.74-1.37h37.94ZM981.99,230.31c-.61.11-1.32.54-2.15,1.28-.83.74-1.64,1.68-2.44,2.81-.8,1.13-1.47,2.4-2.03,3.81-.55,1.41-.83,2.83-.83,4.26,1.76,0,3.36.17,4.79.5,1.43.33,2.78.87,4.05,1.61,1.27.75,2.55,1.75,3.84,3.02,1.29,1.27,2.69,2.81,4.18,4.64-.16-1.43-.29-2.73-.37-3.89-.08-1.16-.15-2.26-.21-3.31-.05-1.05-.14-2.04-.25-2.98-.11-.94-.25-1.93-.41-2.98-.16-1.05-.37-2.1-.62-3.14s-.51-1.99-.79-2.81c-.27-.83-.54-1.5-.78-2.03-.25-.52-.49-.79-.7-.79h-5.29Z"/>
      <path class="cls-1" d="M1049.74,206.63l-1.9,3.97c.5.22.94.66,1.32,1.33.38.66.71,1.46.99,2.4.27.94.5,1.96.66,3.06s.25,2.23.25,3.39c0,1.71-.37,3.49-1.12,5.34-.74,1.85-2.03,3.66-3.84,5.42,2.21.28,4.28.97,6.24,2.07,1.96,1.11,3.79,2.4,5.5,3.89,1.71,1.49,3.25,3.09,4.63,4.8,1.38,1.71,2.56,3.31,3.55,4.8l-1.82-22.6c-.16-1.87-.32-3.46-.45-4.76-.14-1.3-.33-2.33-.58-3.1-.25-.77-.58-1.33-.99-1.66-.41-.33-.95-.5-1.61-.5h-.74l3.72-7.86h9.26c-.22.77-.5,1.77-.83,2.98-.33,1.21-.65,2.47-.95,3.77-.3,1.3-.57,2.54-.79,3.73-.22,1.19-.33,2.14-.33,2.85v32.94c0,.94-.36,1.41-1.08,1.41-.5,0-1.07-.17-1.73-.5-.66-.33-1.38-.88-2.15-1.66-1.27-1.21-2.69-2.56-4.26-4.06-1.57-1.49-3.33-2.88-5.29-4.18-1.96-1.3-4.11-2.37-6.45-3.23-2.34-.85-4.86-1.28-7.56-1.28-1.27,0-2.34.06-3.22.17-.88.11-1.6.22-2.15.33-.61.17-1.13.33-1.57.5,0-1.16.13-2.28.37-3.35.25-1.08.66-2.03,1.24-2.86.58-.83,1.35-1.49,2.31-1.99.96-.5,2.16-.74,3.6-.74,1.1-.94,1.87-2.3,2.31-4.1.44-1.79.66-3.57.66-5.34,0-.77-.08-1.6-.25-2.48-.16-.88-.54-1.7-1.12-2.44-.58-.75-1.45-1.35-2.6-1.82s-2.7-.7-4.63-.7c-3.47,0-6.01.66-7.61,1.99-1.6,1.32-2.4,3.01-2.4,5.05,0,1.21.17,2.35.5,3.39.33,1.05.67,2.08,1.03,3.1.36,1.02.7,2.07,1.03,3.15s.5,2.22.5,3.44c0,.83-.19,1.75-.58,2.77-.39,1.02-.84,1.97-1.37,2.86s-1.07,1.61-1.65,2.19c-.58.58-1.06.87-1.45.87-.33,0-.55-.07-.66-.21-.11-.14-.17-.26-.17-.37s.03-.22.08-.33c.05-.11.08-.22.08-.33,0-1.33-.18-2.5-.54-3.52-.36-1.02-.74-2.03-1.16-3.02s-.78-2.03-1.12-3.1c-.33-1.08-.5-2.33-.5-3.77,0-2.32.29-4.76.87-7.33.58-2.57,1.46-4.95,2.65-7.16,1.18-2.21,2.73-4.03,4.63-5.46,1.9-1.43,4.17-2.15,6.82-2.15h14.38Z"/>
      <path class="cls-1" d="M1083.35,218.8c-.44,0-.77-.14-.99-.41-.22-.28-.5-.77-.83-1.49-.33-.66-.7-1.37-1.12-2.11-.41-.74-.8-1.46-1.16-2.15-.36-.69-.68-1.34-.95-1.95-.28-.61-.41-1.08-.41-1.41,0-.61.23-1.2.7-1.78.47-.58,1.2-.87,2.19-.87h5.13c.99,0,1.72.29,2.19.87s.7,1.17.7,1.78c0,.33-.14.8-.41,1.41-.28.61-.59,1.26-.95,1.95-.36.69-.74,1.41-1.16,2.15-.41.75-.78,1.45-1.12,2.11-.33.72-.61,1.21-.83,1.49-.22.28-.55.41-.99.41Z"/>
      <path class="cls-1" d="M1104.64,206.63l-1.9,5.96c-.39,1.21-1.16,1.88-2.32,1.99-.06,0-.26.44-.62,1.32-.36.88-.74,1.99-1.16,3.31-.41,1.32-.79,2.76-1.12,4.3-.33,1.55-.5,3.01-.5,4.39,0,2.48.83,4.22,2.48,5.21,1.65.99,3.72,1.49,6.2,1.49,1.65,0,3.06-.3,4.22-.91,1.16-.61,2.11-1.41,2.85-2.4.74-.99,1.28-2.1,1.61-3.31.33-1.21.5-2.45.5-3.72,0-.94-.06-1.97-.17-3.1-.11-1.13-.29-2.18-.54-3.15-.25-.96-.54-1.78-.87-2.44-.33-.66-.69-.99-1.07-.99-.72,0-1.2-.1-1.45-.29-.25-.19-.37-.59-.37-1.2,0-.22.12-.63.37-1.24.25-.61.54-1.24.87-1.9.33-.66.66-1.31.99-1.94.33-.63.58-1.09.74-1.37h10.17l-2.07,5.96c-.11.33-.33.62-.66.87-.33.25-.72.48-1.16.7.11,1.16.22,2.44.33,3.85.11,1.41.17,2.64.17,3.68,0,1.27-.11,2.32-.33,3.15-.22.83-.47,1.79-.74,2.9.94,0,2.2.72,3.8,2.15,1.6,1.44,3.27,3.16,5,5.17,1.74,2.02,3.4,4.17,5,6.46,1.6,2.29,2.89,4.29,3.88,6l-1.9-23.01c-.16-1.87-.32-3.46-.45-4.76-.14-1.3-.33-2.33-.58-3.1-.25-.77-.58-1.33-.99-1.66-.41-.33-.95-.5-1.61-.5h-.74l3.72-7.86h9.51c-.22.77-.51,1.77-.87,2.98-.36,1.21-.7,2.47-1.03,3.77-.33,1.3-.62,2.54-.87,3.73-.25,1.19-.37,2.14-.37,2.85v34.52c0,.33-.14.58-.41.74-.28.17-.58.25-.91.25-.83,0-1.52-.33-2.07-.99-1.6-1.93-3.54-3.99-5.83-6.17s-4.52-4.19-6.7-6.04c-2.18-1.85-4.11-3.41-5.79-4.68-1.68-1.27-2.69-1.96-3.02-2.07-.5.61-1.06,1.32-1.69,2.15-.63.83-1.35,1.6-2.15,2.32-.8.72-1.71,1.32-2.73,1.82-1.02.5-2.16.75-3.43.75-1.82,0-3.58-.22-5.29-.66-1.71-.44-3.25-1.19-4.63-2.23-1.38-1.05-2.48-2.44-3.31-4.18-.83-1.74-1.24-3.93-1.24-6.58,0-1.38.14-2.7.41-3.97.28-1.27.62-2.51,1.03-3.72.41-1.21.84-2.37,1.28-3.48.44-1.1.83-2.15,1.16-3.14-1.16,0-2.07-.08-2.73-.25-.66-.17-.99-.58-.99-1.24,0-.22.12-.63.37-1.24.25-.61.54-1.24.87-1.9.33-.66.66-1.31.99-1.94.33-.63.58-1.09.74-1.37h10.08Z"/>
      <path class="cls-1" d="M1099.11,189.83h-1.41c-.33,0-.88.06-1.65.17,0-.72.19-1.54.58-2.48.38-.94.85-1.82,1.41-2.65s1.13-1.53,1.73-2.11c.61-.58,1.13-.87,1.57-.87,1.38,0,3.13.44,5.25,1.33,2.12.88,4.26,2.1,6.41,3.64,2.15,1.55,4.15,3.35,5.99,5.42,1.85,2.07,3.18,4.29,4.01,6.66l.25-.66c.5-2.15,1.05-4.22,1.65-6.21.61-1.99,1.53-3.74,2.77-5.26,1.24-1.52,2.95-2.72,5.13-3.6,2.18-.88,5.08-1.33,8.72-1.33,1.49,0,2.73-.03,3.72-.08.99-.05,1.93-.22,2.81-.5.88-.28,1.83-.72,2.85-1.33,1.02-.61,2.27-1.46,3.76-2.57.72,0,1.07.17,1.07.5,0,1.1-.59,2.35-1.78,3.72-1.19,1.38-2.63,2.68-4.34,3.89-1.71,1.21-3.5,2.22-5.37,3.02-1.87.8-3.5,1.2-4.88,1.2-1.87,0-3.65.39-5.33,1.16-1.68.77-3.17,1.77-4.46,2.98-1.29,1.21-2.32,2.57-3.06,4.06-.74,1.49-1.12,2.93-1.12,4.31,0,.44-.26.8-.79,1.08-.52.28-.92.41-1.2.41-.55,0-1.13-.61-1.74-1.82-.94-1.82-2.33-3.46-4.17-4.92-1.85-1.46-3.84-2.73-5.99-3.81-2.15-1.08-4.33-1.9-6.53-2.48-2.2-.58-4.16-.87-5.87-.87Z"/>
      <path class="cls-1" d="M1188.35,206.63l-2.73,5.96c-.61,1.32-2.37,1.99-5.29,1.99h-14.71c-1.32,0-2.65.46-3.97,1.37-1.32.91-2.51,2.07-3.56,3.48-1.05,1.41-1.9,2.93-2.56,4.55-.66,1.63-.99,3.13-.99,4.51.88-.44,1.91-.72,3.1-.83,1.18-.11,2.49-.17,3.93-.17,3.58,0,6.85.55,9.8,1.66,2.95,1.1,5.59,2.51,7.94,4.22s4.38,3.59,6.12,5.63c1.73,2.04,3.18,4.01,4.34,5.92,1.16,1.9,2.02,3.59,2.6,5.05s.87,2.44.87,2.94c0,.28-.15.5-.46.66s-.65.25-1.03.25c-.06,0-.43-.46-1.12-1.37-.69-.91-1.65-2.04-2.89-3.39-1.24-1.35-2.73-2.81-4.46-4.39-1.74-1.57-3.71-3.04-5.91-4.39-2.21-1.35-4.6-2.48-7.19-3.39-2.59-.91-5.35-1.37-8.27-1.37-2.04,0-4.35.23-6.94.7-2.59.47-5.1,1.17-7.52,2.11,0-.83.08-1.7.25-2.61.17-.91.4-1.77.7-2.57.3-.8.63-1.5.99-2.11.36-.61.73-1.02,1.12-1.24,0-3.37.43-6.34,1.28-8.94.85-2.59,2.08-4.69,3.68-6.29h-2.81c-.99,0-1.63-.08-1.9-.25-.28-.17-.41-.58-.41-1.24,0-.22.12-.63.37-1.24.25-.61.54-1.24.87-1.9.33-.66.66-1.31.99-1.94.33-.63.58-1.09.74-1.37h35.05Z"/>
      <path class="cls-1" d="M1223.37,206.63l-2.73,5.96c-.28.61-.62,1.09-1.03,1.45-.41.36-1.15.54-2.19.54h-1.74c3.47,3.64,6.83,7.68,10.09,12.12,3.25,4.44,6.53,9.67,9.84,15.69l-1.41-17.88c-.28-3.81-.73-6.41-1.37-7.82-.63-1.41-1.39-2.11-2.27-2.11h-.58l3.64-7.95h9.42c-.22.94-.48,2.06-.78,3.35-.3,1.3-.61,2.62-.91,3.97-.3,1.35-.57,2.62-.79,3.81-.22,1.19-.33,2.14-.33,2.86v32.03c0,.33-.18.58-.54.74-.36.17-.73.25-1.12.25-.22,0-.5-.15-.83-.46-.33-.3-.94-1.01-1.82-2.11s-2.04-2.59-3.47-4.47c-1.43-1.88-3.05-3.93-4.84-6.17-1.79-2.23-3.65-4.51-5.58-6.83-1.93-2.32-3.83-4.48-5.7-6.5-1.87-2.02-3.63-3.77-5.25-5.26-1.63-1.49-3.02-2.48-4.17-2.98-.77.39-1.56.83-2.36,1.33-.8.5-1.54,1.09-2.23,1.78-.69.69-1.27,1.53-1.74,2.52-.47.99-.78,2.18-.95,3.56,1.93,0,3.76.39,5.5,1.16,1.73.77,3.35,1.77,4.84,2.98,1.49,1.21,2.82,2.54,4.01,3.97,1.18,1.44,2.19,2.84,3.02,4.22.83,1.38,1.47,2.62,1.94,3.72.47,1.11.7,1.9.7,2.4,0,.17-.08.37-.25.62s-.44.37-.83.37c-.44,0-.8-.1-1.07-.29-.28-.19-.58-.43-.91-.7-1.82-1.54-3.46-2.96-4.92-4.26-1.46-1.3-2.92-2.4-4.38-3.31-1.46-.91-2.99-1.61-4.59-2.11-1.6-.5-3.44-.74-5.54-.74-1.16,0-2.29.14-3.39.41-1.1.28-2.26.47-3.47.58,0-.17.04-.65.12-1.45.08-.8.3-1.68.66-2.65.36-.96.9-1.9,1.61-2.81.72-.91,1.71-1.59,2.98-2.03,0-1.6.12-3.02.37-4.26.25-1.24.65-2.37,1.2-3.39.55-1.02,1.24-2,2.07-2.94s1.79-1.93,2.89-2.98h-3.8c-.99,0-1.63-.08-1.9-.25-.28-.17-.41-.58-.41-1.24,0-.22.12-.63.37-1.24.25-.61.54-1.24.87-1.9.33-.66.66-1.31.99-1.94.33-.63.58-1.09.74-1.37h24.3Z"/>
      <path class="cls-1" d="M1253.67,218.8c-.44,0-.77-.14-.99-.41-.22-.28-.5-.77-.83-1.49-.33-.66-.7-1.37-1.12-2.11-.41-.74-.8-1.46-1.16-2.15-.36-.69-.68-1.34-.95-1.95-.28-.61-.41-1.08-.41-1.41,0-.61.23-1.2.7-1.78.47-.58,1.2-.87,2.19-.87h5.13c.99,0,1.72.29,2.19.87.47.58.7,1.17.7,1.78,0,.33-.14.8-.41,1.41-.28.61-.59,1.26-.95,1.95-.36.69-.74,1.41-1.16,2.15-.41.75-.78,1.45-1.12,2.11-.33.72-.61,1.21-.83,1.49-.22.28-.55.41-.99.41Z"/>
      <path class="cls-1" d="M1300.02,206.63l-2.73,5.96c-.61,1.32-2.37,1.99-5.29,1.99h-6.94c-1.82,0-3.71.36-5.66,1.08-1.96.72-3.75,1.68-5.37,2.9-1.63,1.21-2.96,2.59-4.01,4.14-1.05,1.55-1.57,3.15-1.57,4.8.61-.28,1.54-.51,2.81-.7,1.27-.19,3.09-.29,5.46-.29,1.87,0,3.86.33,5.95.99,2.09.66,4.09,1.57,5.99,2.73,1.9,1.16,3.62,2.52,5.17,4.1,1.54,1.57,2.7,3.27,3.47,5.09.55,1.27,1.1,2.62,1.65,4.06.55,1.44,1.09,3.13,1.61,5.09.52,1.96,1.02,4.28,1.49,6.95.47,2.68.88,5.91,1.24,9.69.36,3.78.63,8.22.83,13.33.19,5.1.29,11.05.29,17.84,0,.55-.14.96-.41,1.24-.28.27-.58.41-.91.41-.39,0-.79-.15-1.2-.46-.41-.3-.65-.7-.7-1.2-.39-3.59-.73-7.59-1.03-12-.3-4.42-.74-8.88-1.32-13.41-.58-4.52-1.41-8.91-2.48-13.16-1.08-4.25-2.58-8.03-4.51-11.34-1.93-3.31-4.37-5.97-7.32-7.99-2.95-2.01-6.63-3.02-11.04-3.02-1.16,0-2.44.14-3.84.41-1.41.28-2.76.58-4.05.91-1.29.33-2.44.63-3.43.91-.99.28-1.65.44-1.98.5,0-2.43.4-4.35,1.2-5.75.8-1.41,1.83-2.52,3.1-3.35,0-2.43.11-4.41.33-5.96.22-1.54.52-2.83.91-3.85.38-1.02.85-1.87,1.41-2.56.55-.69,1.18-1.39,1.9-2.11h-3.8c-.88,0-1.39-.1-1.53-.29-.14-.19-.21-.59-.21-1.2,0-.22.12-.63.37-1.24.25-.61.54-1.24.87-1.9.33-.66.66-1.31.99-1.94.33-.63.58-1.09.74-1.37h33.56Z"/>
      <path class="cls-1" d="M1362.31,266.72c0,2.15-.46,4.15-1.37,6-.91,1.85-2.08,3.46-3.51,4.84-1.43,1.38-3.05,2.46-4.84,3.23-1.79.77-3.6,1.16-5.41,1.16-2.15,0-4.13-.51-5.95-1.53-1.82-1.02-3.58-2.39-5.29-4.1-1.71-1.71-3.46-3.63-5.25-5.75-1.79-2.12-3.73-4.32-5.83-6.58-2.1-2.26-4.42-4.46-6.99-6.58-2.56-2.12-5.47-4.02-8.72-5.67-1.1-.44-1.65-1.13-1.65-2.07,0-.27.12-.5.37-.66.25-.17.48-.25.7-.25.88,0,1.82.19,2.81.58,2.37,1.05,4.79,2.4,7.27,4.06,2.48,1.66,4.95,3.41,7.4,5.26,2.45,1.85,4.89,3.73,7.32,5.63,2.42,1.9,4.75,3.61,6.98,5.13,2.23,1.52,4.37,2.75,6.41,3.68,2.04.94,3.94,1.41,5.7,1.41,1.6,0,2.98-.39,4.13-1.16,1.16-.77,1.74-2.21,1.74-4.3,0-.94-.29-1.82-.87-2.65-.58-.83-1.32-1.54-2.23-2.15-.91-.61-1.93-1.09-3.06-1.45-1.13-.36-2.25-.54-3.35-.54-1.16,0-2.23.22-3.22.66-.17.06-.41.19-.74.41-.33.22-.68.44-1.03.66-.36.22-.72.43-1.07.62-.36.19-.62.29-.78.29-.28,0-.43-.32-.46-.95-.03-.63-.04-1.2-.04-1.7,0-.66.18-1.47.54-2.44.36-.96.92-1.89,1.69-2.77s1.75-1.64,2.93-2.28,2.58-.95,4.18-.95c1.71,0,3.26.35,4.67,1.03,1.41.69,2.62,1.63,3.64,2.81,1.02,1.19,1.81,2.57,2.36,4.14.55,1.57.83,3.21.83,4.92ZM1350.41,206.63l-2.73,5.96c-.61,1.32-2.37,1.99-5.29,1.99h-14.71c-1.32,0-2.65.46-3.97,1.37-1.32.91-2.51,2.07-3.56,3.48-1.05,1.41-1.9,2.93-2.56,4.55-.66,1.63-.99,3.13-.99,4.51.88-.44,2.05-.72,3.51-.83,1.46-.11,2.91-.17,4.34-.17,3.58,0,6.97.48,10.17,1.45,3.2.96,6.15,2.19,8.85,3.68,2.7,1.49,5.14,3.15,7.32,4.97,2.18,1.82,4.02,3.59,5.54,5.3,1.52,1.71,2.69,3.27,3.51,4.68.83,1.41,1.24,2.44,1.24,3.1,0,.28-.15.5-.46.66-.3.17-.65.25-1.03.25-.06,0-.57-.4-1.53-1.2-.97-.8-2.29-1.79-3.97-2.98-1.68-1.19-3.64-2.48-5.87-3.89-2.23-1.41-4.66-2.7-7.27-3.89-2.62-1.19-5.37-2.18-8.27-2.98-2.89-.8-5.8-1.2-8.72-1.2-2.04,0-4.35.22-6.94.66-2.59.44-5.1,1.13-7.52,2.07,0-.83.1-1.7.29-2.61.19-.91.44-1.75.74-2.52.3-.77.65-1.46,1.03-2.07.39-.61.77-1.02,1.16-1.24,0-3.37.4-6.33,1.2-8.9.8-2.56,2-4.65,3.6-6.25h-2.81c-.99,0-1.63-.08-1.9-.25-.28-.17-.41-.58-.41-1.24,0-.22.12-.63.37-1.24.25-.61.54-1.24.87-1.9.33-.66.66-1.31.99-1.94.33-.63.58-1.09.74-1.37h35.05Z"/>
      <path class="cls-1" d="M1387.9,206.63l-1.9,3.97c.5.22.94.66,1.32,1.33.38.66.71,1.46.99,2.4.27.94.5,1.96.66,3.06.17,1.1.25,2.23.25,3.39,0,1.71-.37,3.49-1.12,5.34-.74,1.85-2.03,3.66-3.84,5.42,2.21.28,4.28.97,6.24,2.07,1.96,1.11,3.79,2.4,5.5,3.89,1.71,1.49,3.25,3.09,4.63,4.8,1.38,1.71,2.56,3.31,3.55,4.8l-1.82-22.6c-.16-1.87-.32-3.46-.45-4.76-.14-1.3-.33-2.33-.58-3.1-.25-.77-.58-1.33-.99-1.66-.41-.33-.95-.5-1.61-.5h-.74l3.72-7.86h9.26c-.22.77-.5,1.77-.83,2.98-.33,1.21-.65,2.47-.95,3.77-.3,1.3-.57,2.54-.79,3.73-.22,1.19-.33,2.14-.33,2.85v32.94c0,.94-.36,1.41-1.08,1.41-.5,0-1.07-.17-1.73-.5-.66-.33-1.38-.88-2.15-1.66-1.27-1.21-2.69-2.56-4.26-4.06-1.57-1.49-3.33-2.88-5.29-4.18-1.96-1.3-4.11-2.37-6.45-3.23-2.34-.85-4.86-1.28-7.56-1.28-1.27,0-2.34.06-3.22.17-.88.11-1.6.22-2.15.33-.61.17-1.13.33-1.57.5,0-1.16.13-2.28.37-3.35.25-1.08.66-2.03,1.24-2.86.58-.83,1.35-1.49,2.31-1.99.96-.5,2.16-.74,3.6-.74,1.1-.94,1.87-2.3,2.31-4.1.44-1.79.66-3.57.66-5.34,0-.77-.08-1.6-.25-2.48-.16-.88-.54-1.7-1.12-2.44-.58-.75-1.45-1.35-2.6-1.82-1.16-.47-2.7-.7-4.63-.7-3.47,0-6.01.66-7.61,1.99-1.6,1.32-2.4,3.01-2.4,5.05,0,1.21.17,2.35.5,3.39.33,1.05.67,2.08,1.03,3.1.36,1.02.7,2.07,1.03,3.15.33,1.08.5,2.22.5,3.44,0,.83-.19,1.75-.58,2.77-.39,1.02-.84,1.97-1.37,2.86s-1.07,1.61-1.65,2.19c-.58.58-1.06.87-1.45.87-.33,0-.55-.07-.66-.21-.11-.14-.17-.26-.17-.37s.03-.22.08-.33c.05-.11.08-.22.08-.33,0-1.33-.18-2.5-.54-3.52-.36-1.02-.74-2.03-1.16-3.02-.41-.99-.78-2.03-1.12-3.1-.33-1.08-.5-2.33-.5-3.77,0-2.32.29-4.76.87-7.33.58-2.57,1.46-4.95,2.65-7.16,1.18-2.21,2.73-4.03,4.63-5.46,1.9-1.43,4.17-2.15,6.82-2.15h14.38Z"/>
      <path class="cls-1" d="M1421.51,218.8c-.44,0-.77-.14-.99-.41-.22-.28-.5-.77-.83-1.49-.33-.66-.7-1.37-1.12-2.11-.41-.74-.8-1.46-1.16-2.15s-.68-1.34-.95-1.95c-.28-.61-.41-1.08-.41-1.41,0-.61.23-1.2.7-1.78.47-.58,1.2-.87,2.19-.87h5.13c.99,0,1.72.29,2.19.87.47.58.7,1.17.7,1.78,0,.33-.14.8-.41,1.41-.28.61-.59,1.26-.95,1.95-.36.69-.74,1.41-1.16,2.15-.41.75-.78,1.45-1.12,2.11-.33.72-.61,1.21-.83,1.49-.22.28-.55.41-.99.41Z"/>
      <path class="cls-1" d="M1478.02,206.63c-.22,1.05-.48,2.15-.78,3.31-.3,1.16-.58,2.29-.83,3.39-.25,1.1-.47,2.14-.66,3.1-.19.96-.29,1.81-.29,2.52v31.12c0,.88-.44,1.33-1.32,1.33-.33,0-.85-.32-1.57-.95-.72-.63-1.57-1.41-2.56-2.32-.99-.91-2.09-1.92-3.31-3.02-1.21-1.1-2.48-2.11-3.8-3.02-1.32-.91-2.67-1.68-4.05-2.32-1.38-.63-2.73-.95-4.05-.95-.77,0-1.61.06-2.52.17-.91.11-1.81.25-2.69.41-.88.17-1.68.37-2.4.62-.72.25-1.27.51-1.65.79,0-.22.04-.72.12-1.49.08-.77.25-1.63.5-2.57s.58-1.83.99-2.69c.41-.85.95-1.45,1.61-1.78,0-1.93.19-3.83.58-5.71.39-1.87.85-3.6,1.41-5.17.55-1.57,1.14-2.96,1.78-4.18.63-1.21,1.2-2.12,1.69-2.73h-12.4c-.33,0-.72.15-1.16.46-.44.3-.87.7-1.28,1.2-.41.5-.77,1.08-1.07,1.74s-.48,1.38-.54,2.15l-2.65,34.76c-.06.44-.17.8-.33,1.08s-.41.41-.74.41c-1.21,0-1.82-.5-1.82-1.49l-1.65-37.33c0-.39.33-1.16.99-2.32.66-1.16,1.42-2.37,2.27-3.64.85-1.27,1.68-2.4,2.48-3.39.8-.99,1.37-1.49,1.69-1.49h40.01ZM1463.06,214.5c-.99,0-2.1.62-3.31,1.86-1.21,1.24-2.34,2.75-3.39,4.51-1.05,1.77-1.92,3.61-2.6,5.55-.69,1.93-1.03,3.56-1.03,4.88.77-.11,1.5-.19,2.19-.25.69-.06,1.34-.08,1.94-.08,1.49,0,2.95.43,4.38,1.28,1.43.86,2.78,1.89,4.05,3.1,1.27,1.21,2.44,2.5,3.51,3.85,1.07,1.35,2.02,2.5,2.85,3.44l-1.73-18.21c-.17-1.99-.39-3.61-.66-4.88-.28-1.27-.58-2.27-.91-3.02-.33-.75-.7-1.25-1.12-1.53s-.84-.44-1.28-.5h-2.89Z"/>
      <path class="cls-1" d="M1523.21,206.63l-2.73,5.96c-.61,1.32-2.37,1.99-5.29,1.99h-14.71c-1.32,0-2.65.46-3.97,1.37-1.32.91-2.51,2.07-3.56,3.48-1.05,1.41-1.9,2.93-2.56,4.55-.66,1.63-.99,3.13-.99,4.51.88-.44,1.91-.72,3.1-.83s2.49-.17,3.93-.17c3.58,0,6.85.55,9.8,1.66,2.95,1.1,5.59,2.51,7.94,4.22,2.34,1.71,4.38,3.59,6.12,5.63,1.73,2.04,3.18,4.01,4.34,5.92,1.16,1.9,2.02,3.59,2.6,5.05.58,1.46.87,2.44.87,2.94,0,.28-.15.5-.46.66s-.65.25-1.03.25c-.06,0-.43-.46-1.12-1.37-.69-.91-1.65-2.04-2.89-3.39-1.24-1.35-2.73-2.81-4.46-4.39-1.74-1.57-3.71-3.04-5.91-4.39-2.21-1.35-4.6-2.48-7.19-3.39-2.59-.91-5.35-1.37-8.27-1.37-2.04,0-4.35.23-6.94.7-2.59.47-5.1,1.17-7.52,2.11,0-.83.08-1.7.25-2.61.17-.91.4-1.77.7-2.57.3-.8.63-1.5.99-2.11.36-.61.73-1.02,1.12-1.24,0-3.37.43-6.34,1.28-8.94.85-2.59,2.08-4.69,3.68-6.29h-2.81c-.99,0-1.63-.08-1.9-.25-.28-.17-.41-.58-.41-1.24,0-.22.12-.63.37-1.24.25-.61.54-1.24.87-1.9.33-.66.66-1.31.99-1.94.33-.63.58-1.09.74-1.37h35.05Z"/>
      <path class="cls-1" d="M1532.1,218.8c-.44,0-.77-.14-.99-.41-.22-.28-.5-.77-.83-1.49-.33-.66-.7-1.37-1.12-2.11-.41-.74-.8-1.46-1.16-2.15s-.68-1.34-.95-1.95c-.28-.61-.41-1.08-.41-1.41,0-.61.23-1.2.7-1.78.47-.58,1.2-.87,2.19-.87h5.13c.99,0,1.72.29,2.19.87s.7,1.17.7,1.78c0,.33-.14.8-.41,1.41-.28.61-.59,1.26-.95,1.95-.36.69-.74,1.41-1.16,2.15-.41.75-.78,1.45-1.12,2.11-.33.72-.61,1.21-.83,1.49-.22.28-.55.41-.99.41Z"/>
      <path class="cls-1" d="M1553.68,206.63c.77,0,1.36.11,1.78.33.41.22.62.63.62,1.24,0,1.05-.15,2.08-.46,3.1-.3,1.02-.59,2.08-.87,3.19-.28,1.11-.59,2.19-.95,3.27s-.54,2.17-.54,3.27v75.4c0,.28-.14.61-.41.99-.28.39-.8.58-1.57.58-.39,0-.73-.19-1.03-.58-.3-.39-.46-.72-.46-.99l-3.97-74.74c0-.33-.08-.79-.25-1.37s-.36-1.16-.58-1.74c-.22-.58-.5-1.13-.83-1.66-.33-.52-.66-.95-.99-1.28v-3.39l2.32-5.63h8.18Z"/>
      <path class="cls-1" d="M1572.13,206.63c.77,0,1.36.11,1.78.33.41.22.62.63.62,1.24,0,1.05-.15,2.08-.46,3.1-.3,1.02-.59,2.08-.87,3.19-.28,1.11-.59,2.19-.95,3.27s-.54,2.17-.54,3.27v75.4c0,.28-.14.61-.41.99-.28.39-.8.58-1.57.58-.39,0-.73-.19-1.03-.58-.3-.39-.46-.72-.46-.99l-3.97-74.74c0-.33-.08-.79-.25-1.37s-.36-1.16-.58-1.74c-.22-.58-.5-1.13-.83-1.66-.33-.52-.66-.95-.99-1.28v-3.39l2.32-5.63h8.18Z"/>
    </g>
  </g>
</svg>